<svg height="3006" width="720" xmlns="http://www.w3.org/2000/svg">
<rect height="3006" fill="#555" width="720"></rect>
<text fill="#7f7" font-family="Courier New" font-size="12" xml:space="preserve">
<tspan x="10" y="26">25 megabytes installed</tspan>
<tspan x="10" y="42"></tspan>
<tspan x="10" y="58">node_modules</tspan>
<tspan x="10" y="74">├── UNMET PEER DEPENDENCY grunt@&gt;=0.4.0</tspan>
<tspan x="10" y="90">└─┬ grunt-sass@2.0.0 </tspan>
<tspan x="10" y="106">  ├─┬ each-async@1.1.1 </tspan>
<tspan x="10" y="122">  │ ├── onetime@1.1.0 </tspan>
<tspan x="10" y="138">  │ └── set-immediate-shim@1.0.1 </tspan>
<tspan x="10" y="154">  ├─┬ node-sass@4.5.2 </tspan>
<tspan x="10" y="170">  │ ├── async-foreach@0.1.3 </tspan>
<tspan x="10" y="186">  │ ├─┬ chalk@1.1.3 </tspan>
<tspan x="10" y="202">  │ │ ├── ansi-styles@2.2.1 </tspan>
<tspan x="10" y="218">  │ │ ├── escape-string-regexp@1.0.5 </tspan>
<tspan x="10" y="234">  │ │ ├─┬ has-ansi@2.0.0 </tspan>
<tspan x="10" y="250">  │ │ │ └── ansi-regex@2.1.1 </tspan>
<tspan x="10" y="266">  │ │ ├── strip-ansi@3.0.1 </tspan>
<tspan x="10" y="282">  │ │ └── supports-color@2.0.0 </tspan>
<tspan x="10" y="298">  │ ├─┬ cross-spawn@3.0.1 </tspan>
<tspan x="10" y="314">  │ │ ├─┬ lru-cache@4.0.2 </tspan>
<tspan x="10" y="330">  │ │ │ ├── pseudomap@1.0.2 </tspan>
<tspan x="10" y="346">  │ │ │ └── yallist@2.1.2 </tspan>
<tspan x="10" y="362">  │ │ └─┬ which@1.2.14 </tspan>
<tspan x="10" y="378">  │ │   └── isexe@2.0.0 </tspan>
<tspan x="10" y="394">  │ ├─┬ gaze@1.1.2 </tspan>
<tspan x="10" y="410">  │ │ └── globule@1.1.0 </tspan>
<tspan x="10" y="426">  │ ├── get-stdin@4.0.1 </tspan>
<tspan x="10" y="442">  │ ├─┬ glob@7.1.1 </tspan>
<tspan x="10" y="458">  │ │ ├── fs.realpath@1.0.0 </tspan>
<tspan x="10" y="474">  │ │ ├─┬ inflight@1.0.6 </tspan>
<tspan x="10" y="490">  │ │ │ └── wrappy@1.0.2 </tspan>
<tspan x="10" y="506">  │ │ ├── inherits@2.0.3 </tspan>
<tspan x="10" y="522">  │ │ ├─┬ minimatch@3.0.3 </tspan>
<tspan x="10" y="538">  │ │ │ └─┬ brace-expansion@1.1.7 </tspan>
<tspan x="10" y="554">  │ │ │   ├── balanced-match@0.4.2 </tspan>
<tspan x="10" y="570">  │ │ │   └── concat-map@0.0.1 </tspan>
<tspan x="10" y="586">  │ │ ├── once@1.4.0 </tspan>
<tspan x="10" y="602">  │ │ └── path-is-absolute@1.0.1 </tspan>
<tspan x="10" y="618">  │ ├── in-publish@2.0.0 </tspan>
<tspan x="10" y="634">  │ ├── lodash.assign@4.2.0 </tspan>
<tspan x="10" y="650">  │ ├── lodash.clonedeep@4.5.0 </tspan>
<tspan x="10" y="666">  │ ├── lodash.mergewith@4.6.0 </tspan>
<tspan x="10" y="682">  │ ├─┬ meow@3.7.0 </tspan>
<tspan x="10" y="698">  │ │ ├─┬ camelcase-keys@2.1.0 </tspan>
<tspan x="10" y="714">  │ │ │ └── camelcase@2.1.1 </tspan>
<tspan x="10" y="730">  │ │ ├── decamelize@1.2.0 </tspan>
<tspan x="10" y="746">  │ │ ├─┬ loud-rejection@1.6.0 </tspan>
<tspan x="10" y="762">  │ │ │ ├─┬ currently-unhandled@0.4.1 </tspan>
<tspan x="10" y="778">  │ │ │ │ └── array-find-index@1.0.2 </tspan>
<tspan x="10" y="794">  │ │ │ └── signal-exit@3.0.2 </tspan>
<tspan x="10" y="810">  │ │ ├── map-obj@1.0.1 </tspan>
<tspan x="10" y="826">  │ │ ├── minimist@1.2.0 </tspan>
<tspan x="10" y="842">  │ │ ├─┬ normalize-package-data@2.3.6 </tspan>
<tspan x="10" y="858">  │ │ │ ├── hosted-git-info@2.4.2 </tspan>
<tspan x="10" y="874">  │ │ │ ├─┬ is-builtin-module@1.0.0 </tspan>
<tspan x="10" y="890">  │ │ │ │ └── builtin-modules@1.1.1 </tspan>
<tspan x="10" y="906">  │ │ │ └─┬ validate-npm-package-license@3.0.1 </tspan>
<tspan x="10" y="922">  │ │ │   ├─┬ spdx-correct@1.0.2 </tspan>
<tspan x="10" y="938">  │ │ │   │ └── spdx-license-ids@1.2.2 </tspan>
<tspan x="10" y="954">  │ │ │   └── spdx-expression-parse@1.0.4 </tspan>
<tspan x="10" y="970">  │ │ ├─┬ read-pkg-up@1.0.1 </tspan>
<tspan x="10" y="986">  │ │ │ ├─┬ find-up@1.1.2 </tspan>
<tspan x="10" y="1002">  │ │ │ │ ├── path-exists@2.1.0 </tspan>
<tspan x="10" y="1018">  │ │ │ │ └─┬ pinkie-promise@2.0.1 </tspan>
<tspan x="10" y="1034">  │ │ │ │   └── pinkie@2.0.4 </tspan>
<tspan x="10" y="1050">  │ │ │ └─┬ read-pkg@1.1.0 </tspan>
<tspan x="10" y="1066">  │ │ │   ├─┬ load-json-file@1.1.0 </tspan>
<tspan x="10" y="1082">  │ │ │   │ ├─┬ parse-json@2.2.0 </tspan>
<tspan x="10" y="1098">  │ │ │   │ │ └─┬ error-ex@1.3.1 </tspan>
<tspan x="10" y="1114">  │ │ │   │ │   └── is-arrayish@0.2.1 </tspan>
<tspan x="10" y="1130">  │ │ │   │ ├── pify@2.3.0 </tspan>
<tspan x="10" y="1146">  │ │ │   │ └─┬ strip-bom@2.0.0 </tspan>
<tspan x="10" y="1162">  │ │ │   │   └── is-utf8@0.2.1 </tspan>
<tspan x="10" y="1178">  │ │ │   └── path-type@1.1.0 </tspan>
<tspan x="10" y="1194">  │ │ ├─┬ redent@1.0.0 </tspan>
<tspan x="10" y="1210">  │ │ │ ├─┬ indent-string@2.1.0 </tspan>
<tspan x="10" y="1226">  │ │ │ │ └─┬ repeating@2.0.1 </tspan>
<tspan x="10" y="1242">  │ │ │ │   └── is-finite@1.0.2 </tspan>
<tspan x="10" y="1258">  │ │ │ └── strip-indent@1.0.1 </tspan>
<tspan x="10" y="1274">  │ │ └── trim-newlines@1.0.0 </tspan>
<tspan x="10" y="1290">  │ ├─┬ mkdirp@0.5.1 </tspan>
<tspan x="10" y="1306">  │ │ └── minimist@0.0.8 </tspan>
<tspan x="10" y="1322">  │ ├── nan@2.6.2 </tspan>
<tspan x="10" y="1338">  │ ├─┬ node-gyp@3.6.0 </tspan>
<tspan x="10" y="1354">  │ │ ├── fstream@1.0.11 </tspan>
<tspan x="10" y="1370">  │ │ ├── graceful-fs@4.1.11 </tspan>
<tspan x="10" y="1386">  │ │ ├─┬ nopt@3.0.6 </tspan>
<tspan x="10" y="1402">  │ │ │ └── abbrev@1.1.0 </tspan>
<tspan x="10" y="1418">  │ │ ├─┬ osenv@0.1.4 </tspan>
<tspan x="10" y="1434">  │ │ │ ├── os-homedir@1.0.2 </tspan>
<tspan x="10" y="1450">  │ │ │ └── os-tmpdir@1.0.2 </tspan>
<tspan x="10" y="1466">  │ │ ├── rimraf@2.6.1 </tspan>
<tspan x="10" y="1482">  │ │ ├── semver@5.3.0 </tspan>
<tspan x="10" y="1498">  │ │ └─┬ tar@2.2.1 </tspan>
<tspan x="10" y="1514">  │ │   └── block-stream@0.0.9 </tspan>
<tspan x="10" y="1530">  │ ├─┬ npmlog@4.0.2 </tspan>
<tspan x="10" y="1546">  │ │ ├─┬ are-we-there-yet@1.1.2 </tspan>
<tspan x="10" y="1562">  │ │ │ └── delegates@1.0.0 </tspan>
<tspan x="10" y="1578">  │ │ ├── console-control-strings@1.1.0 </tspan>
<tspan x="10" y="1594">  │ │ ├─┬ gauge@2.7.3 </tspan>
<tspan x="10" y="1610">  │ │ │ ├── aproba@1.1.1 </tspan>
<tspan x="10" y="1626">  │ │ │ ├── has-unicode@2.0.1 </tspan>
<tspan x="10" y="1642">  │ │ │ ├─┬ string-width@1.0.2 </tspan>
<tspan x="10" y="1658">  │ │ │ │ ├── code-point-at@1.1.0 </tspan>
<tspan x="10" y="1674">  │ │ │ │ └─┬ is-fullwidth-code-point@1.0.0 </tspan>
<tspan x="10" y="1690">  │ │ │ │   └── number-is-nan@1.0.1 </tspan>
<tspan x="10" y="1706">  │ │ │ └── wide-align@1.1.0 </tspan>
<tspan x="10" y="1722">  │ │ └── set-blocking@2.0.0 </tspan>
<tspan x="10" y="1738">  │ ├─┬ request@2.81.0 </tspan>
<tspan x="10" y="1754">  │ │ ├── aws-sign2@0.6.0 </tspan>
<tspan x="10" y="1770">  │ │ ├── aws4@1.6.0 </tspan>
<tspan x="10" y="1786">  │ │ ├── caseless@0.12.0 </tspan>
<tspan x="10" y="1802">  │ │ ├─┬ combined-stream@1.0.5 </tspan>
<tspan x="10" y="1818">  │ │ │ └── delayed-stream@1.0.0 </tspan>
<tspan x="10" y="1834">  │ │ ├── extend@3.0.0 </tspan>
<tspan x="10" y="1850">  │ │ ├── forever-agent@0.6.1 </tspan>
<tspan x="10" y="1866">  │ │ ├─┬ form-data@2.1.4 </tspan>
<tspan x="10" y="1882">  │ │ │ └── asynckit@0.4.0 </tspan>
<tspan x="10" y="1898">  │ │ ├─┬ har-validator@4.2.1 </tspan>
<tspan x="10" y="1914">  │ │ │ ├─┬ ajv@4.11.7 </tspan>
<tspan x="10" y="1930">  │ │ │ │ ├── co@4.6.0 </tspan>
<tspan x="10" y="1946">  │ │ │ │ └─┬ json-stable-stringify@1.0.1 </tspan>
<tspan x="10" y="1962">  │ │ │ │   └── jsonify@0.0.0 </tspan>
<tspan x="10" y="1978">  │ │ │ └── har-schema@1.0.5 </tspan>
<tspan x="10" y="1994">  │ │ ├─┬ hawk@3.1.3 </tspan>
<tspan x="10" y="2010">  │ │ │ ├── boom@2.10.1 </tspan>
<tspan x="10" y="2026">  │ │ │ ├── cryptiles@2.0.5 </tspan>
<tspan x="10" y="2042">  │ │ │ ├── hoek@2.16.3 </tspan>
<tspan x="10" y="2058">  │ │ │ └── sntp@1.0.9 </tspan>
<tspan x="10" y="2074">  │ │ ├─┬ http-signature@1.1.1 </tspan>
<tspan x="10" y="2090">  │ │ │ ├── assert-plus@0.2.0 </tspan>
<tspan x="10" y="2106">  │ │ │ ├─┬ jsprim@1.4.0 </tspan>
<tspan x="10" y="2122">  │ │ │ │ ├── assert-plus@1.0.0 </tspan>
<tspan x="10" y="2138">  │ │ │ │ ├── extsprintf@1.0.2 </tspan>
<tspan x="10" y="2154">  │ │ │ │ ├── json-schema@0.2.3 </tspan>
<tspan x="10" y="2170">  │ │ │ │ └── verror@1.3.6 </tspan>
<tspan x="10" y="2186">  │ │ │ └─┬ sshpk@1.13.0 </tspan>
<tspan x="10" y="2202">  │ │ │   ├── asn1@0.2.3 </tspan>
<tspan x="10" y="2218">  │ │ │   ├── assert-plus@1.0.0 </tspan>
<tspan x="10" y="2234">  │ │ │   ├── bcrypt-pbkdf@1.0.1 </tspan>
<tspan x="10" y="2250">  │ │ │   ├─┬ dashdash@1.14.1 </tspan>
<tspan x="10" y="2266">  │ │ │   │ └── assert-plus@1.0.0 </tspan>
<tspan x="10" y="2282">  │ │ │   ├── ecc-jsbn@0.1.1 </tspan>
<tspan x="10" y="2298">  │ │ │   ├─┬ getpass@0.1.6 </tspan>
<tspan x="10" y="2314">  │ │ │   │ └── assert-plus@1.0.0 </tspan>
<tspan x="10" y="2330">  │ │ │   ├── jodid25519@1.0.2 </tspan>
<tspan x="10" y="2346">  │ │ │   ├── jsbn@0.1.1 </tspan>
<tspan x="10" y="2362">  │ │ │   └── tweetnacl@0.14.5 </tspan>
<tspan x="10" y="2378">  │ │ ├── is-typedarray@1.0.0 </tspan>
<tspan x="10" y="2394">  │ │ ├── isstream@0.1.2 </tspan>
<tspan x="10" y="2410">  │ │ ├── json-stringify-safe@5.0.1 </tspan>
<tspan x="10" y="2426">  │ │ ├─┬ mime-types@2.1.15 </tspan>
<tspan x="10" y="2442">  │ │ │ └── mime-db@1.27.0 </tspan>
<tspan x="10" y="2458">  │ │ ├── oauth-sign@0.8.2 </tspan>
<tspan x="10" y="2474">  │ │ ├── performance-now@0.2.0 </tspan>
<tspan x="10" y="2490">  │ │ ├── qs@6.4.0 </tspan>
<tspan x="10" y="2506">  │ │ ├── safe-buffer@5.0.1 </tspan>
<tspan x="10" y="2522">  │ │ ├── stringstream@0.0.5 </tspan>
<tspan x="10" y="2538">  │ │ ├─┬ tough-cookie@2.3.2 </tspan>
<tspan x="10" y="2554">  │ │ │ └── punycode@1.4.1 </tspan>
<tspan x="10" y="2570">  │ │ ├── tunnel-agent@0.6.0 </tspan>
<tspan x="10" y="2586">  │ │ └── uuid@3.0.1 </tspan>
<tspan x="10" y="2602">  │ ├─┬ sass-graph@2.1.2 </tspan>
<tspan x="10" y="2618">  │ │ ├── lodash@4.16.6 </tspan>
<tspan x="10" y="2634">  │ │ └─┬ yargs@4.8.1 </tspan>
<tspan x="10" y="2650">  │ │   ├─┬ cliui@3.2.0 </tspan>
<tspan x="10" y="2666">  │ │   │ └── wrap-ansi@2.1.0 </tspan>
<tspan x="10" y="2682">  │ │   ├── get-caller-file@1.0.2 </tspan>
<tspan x="10" y="2698">  │ │   ├─┬ os-locale@1.4.0 </tspan>
<tspan x="10" y="2714">  │ │   │ └─┬ lcid@1.0.0 </tspan>
<tspan x="10" y="2730">  │ │   │   └── invert-kv@1.0.0 </tspan>
<tspan x="10" y="2746">  │ │   ├── require-directory@2.1.1 </tspan>
<tspan x="10" y="2762">  │ │   ├── require-main-filename@1.0.1 </tspan>
<tspan x="10" y="2778">  │ │   ├── which-module@1.0.0 </tspan>
<tspan x="10" y="2794">  │ │   ├── window-size@0.2.0 </tspan>
<tspan x="10" y="2810">  │ │   ├── y18n@3.2.1 </tspan>
<tspan x="10" y="2826">  │ │   └─┬ yargs-parser@2.4.1 </tspan>
<tspan x="10" y="2842">  │ │     └── camelcase@3.0.0 </tspan>
<tspan x="10" y="2858">  │ └─┬ stdout-stream@1.4.0 </tspan>
<tspan x="10" y="2874">  │   └─┬ readable-stream@2.2.9 </tspan>
<tspan x="10" y="2890">  │     ├── buffer-shims@1.0.0 </tspan>
<tspan x="10" y="2906">  │     ├── core-util-is@1.0.2 </tspan>
<tspan x="10" y="2922">  │     ├── isarray@1.0.0 </tspan>
<tspan x="10" y="2938">  │     ├── process-nextick-args@1.0.7 </tspan>
<tspan x="10" y="2954">  │     ├── string_decoder@1.0.0 </tspan>
<tspan x="10" y="2970">  │     └── util-deprecate@1.0.2 </tspan>
<tspan x="10" y="2986">  └── object-assign@4.1.1</tspan>
</text>
</svg>
